<?xml version="1.0" encoding="utf-8"?>
<!-- Generator: Adobe Illustrator 19.0.1, SVG Export Plug-In . SVG Version: 6.00 Build 0)  -->
<svg version="1.1" id="Calque_1" xmlns="http://www.w3.org/2000/svg" xmlns:xlink="http://www.w3.org/1999/xlink" x="0px" y="0px"
	 viewBox="0 0 118.5 86" style="enable-background:new 0 0 118.5 86;" xml:space="preserve">
<style type="text/css">
	.st0{fill:#156AA1;}
	.st1{fill:#147BA5;}
	.st2{fill:#19589E;}
	.st3{fill:#0063B2;}
	.st4{fill:#0082B5;}
	.st5{fill:#00A2B8;}
	.st6{fill:#00C4BB;}
	.st7{fill:#00FFC1;}
	.st8{fill:#0021AC;}
	.st9{opacity:0.2;}
	.st10{fill:#FFFFFF;}
	.st11{fill:#00FFCE;}
	.st12{opacity:0.92;}
	.st13{opacity:0.2;fill:#FFFFFF;}
	.st14{fill:url(#SVGID_1_);}
	.st15{fill:url(#SVGID_2_);}
	.st16{fill:#EDEDED;}
	.st17{opacity:0.58;}
	.st18{fill:url(#SVGID_3_);}
	.st19{fill:none;}
	.st20{fill:none;stroke:#E84E1B;stroke-miterlimit:10;}
	.st21{fill:none;stroke:#BD1622;stroke-miterlimit:10;}
	.st22{fill:#E84E1B;}
	.st23{fill:#BD1622;}
	.st24{fill:#E5007E;}
	.st25{fill:none;stroke:#E5007E;stroke-miterlimit:10;}
	.st26{fill:url(#SVGID_4_);}
	.st27{fill:url(#SVGID_5_);}
	.st28{fill:url(#SVGID_6_);}
	.st29{opacity:0.69;fill:#1D1D1B;}
	.st30{fill:none;stroke:#FFEC00;stroke-width:2;stroke-miterlimit:10;}
	.st31{fill:#FFEC00;}
	.st32{fill:#93C01F;}
	.st33{fill:#F29100;}
	.st34{fill:none;stroke:#F29100;stroke-miterlimit:10;}
	.st35{fill:none;stroke:#F29100;stroke-width:2;stroke-miterlimit:10;}
	.st36{fill:none;stroke:#BD1622;stroke-width:2;stroke-miterlimit:10;}
	.st37{fill:none;stroke:#E5332A;stroke-width:2;stroke-miterlimit:10;}
	.st38{fill:none;stroke:#93C01F;stroke-width:2;stroke-miterlimit:10;}
	.st39{fill:none;stroke:#93C01F;stroke-miterlimit:10;}
	.st40{fill:#0038B9;}
	.st41{fill:#0079BF;}
	.st42{fill:#0094C1;}
	.st43{fill:#00B0C4;}
	.st44{fill:#00CCC6;}
	.st45{fill:#00FACB;}
	.st46{fill:url(#SVGID_7_);}
</style>
<linearGradient id="SVGID_1_" gradientUnits="userSpaceOnUse" x1="56.3111" y1="95.1646" x2="59.0441" y2="61.6851">
	<stop  offset="1.980947e-03" style="stop-color:#FFFFFF;stop-opacity:0.2"/>
	<stop  offset="1" style="stop-color:#FFFFFF"/>
</linearGradient>
<path class="st14" d="M6.7,58.3c0,0,0-0.3,0-0.7c0-0.5,0.1-1.1,0.1-2c0.1-0.8,0.2-1.7,0.3-2.7c0.2-1,0.3-2.1,0.5-3.1
	c0.1-0.5,0.2-1.1,0.3-1.6c0.1-0.5,0.2-1,0.4-1.5c0.2-1,0.5-1.9,0.7-2.7c0.2-0.8,0.4-1.4,0.6-1.9c0.2-0.4,0.2-0.7,0.2-0.7
	s0.1-0.3,0.3-0.9c0.2-0.5,0.5-1.3,0.9-2.2c0.8-1.8,2-4.3,3.4-6.5c0.7-1.2,1.5-2.2,2.2-3.3c0.8-1,1.4-2,2.1-2.7
	c0.6-0.8,1.2-1.4,1.6-1.8c0.4-0.4,0.6-0.7,0.6-0.7s0.2-0.2,0.6-0.7c0.4-0.4,1-1,1.7-1.7c1.5-1.3,3.5-3.1,5.7-4.6
	c2.2-1.5,4.5-2.9,6.3-3.8c0.9-0.5,1.7-0.8,2.2-1.1c0.5-0.3,0.8-0.4,0.8-0.4s0.3-0.1,0.9-0.3c0.5-0.2,1.3-0.6,2.3-0.9
	c1.9-0.7,4.5-1.4,7.1-2c2.6-0.6,5.3-0.9,7.3-1c2-0.1,3.3-0.1,3.3-0.1s0.3,0,0.9,0c0.6,0,1.4,0.1,2.4,0.1c2,0.2,4.7,0.4,7.3,1
	c2.6,0.6,5.2,1.3,7.1,2c1,0.3,1.7,0.6,2.3,0.9c0.5,0.2,0.9,0.4,0.9,0.4s0.1,0,0.2,0.1c0.1,0.1,0.4,0.2,0.6,0.3
	c0.5,0.3,1.3,0.6,2.2,1c1.8,0.9,4.1,2.2,6.3,3.8c2.2,1.6,4.3,3.2,5.7,4.6c0.8,0.7,1.3,1.3,1.7,1.7c0.4,0.4,0.6,0.7,0.6,0.7
	s0.2,0.2,0.6,0.7c0.4,0.4,1,1,1.6,1.8c1.3,1.5,2.9,3.7,4.3,6c1.4,2.3,2.6,4.7,3.4,6.5c0.4,0.9,0.7,1.7,0.9,2.2
	c0.2,0.6,0.3,0.9,0.3,0.9s0.1,0.3,0.3,0.9c0.2,0.5,0.4,1.4,0.7,2.3c0.6,1.9,1.2,4.5,1.6,7.2c0.4,2.7,0.6,5.3,0.5,7.3
	c0,1,0,1.8,0,2.4c0,0.6,0,0.9,0,0.9s0,0.3-0.1,0.9c-0.1,0.6-0.1,1.4-0.2,2.4c-0.3,2-0.7,4.6-1.4,7.2c-0.7,2.6-1.6,5.1-2.4,6.9
	c-0.4,0.9-0.8,1.7-1,2.2c-0.3,0.5-0.4,0.8-0.4,0.8l6,3c0,0,0.2-0.3,0.4-0.9c0.3-0.6,0.7-1.4,1.1-2.5c0.9-2.1,1.9-4.9,2.7-7.8
	c0.8-2.9,1.3-5.9,1.6-8.1c0.1-1.1,0.2-2.1,0.3-2.7c0.1-0.7,0.1-1,0.1-1s0-0.4,0-1c0-0.7,0.1-1.6,0.1-2.7c0-2.3-0.2-5.3-0.6-8.3
	c-0.4-3-1.1-5.9-1.8-8.1c-0.3-1.1-0.6-2-0.8-2.6c-0.2-0.6-0.3-1-0.3-1s-0.1-0.4-0.3-1c-0.3-0.6-0.6-1.5-1-2.5
	c-0.9-2.1-2.2-4.8-3.8-7.4c-1.6-2.6-3.4-5-4.8-6.8c-0.7-0.9-1.4-1.6-1.8-2.1c-0.4-0.5-0.7-0.8-0.7-0.8s-0.3-0.3-0.7-0.7
	c-0.5-0.5-1.1-1.2-2-1.9c-1.6-1.6-4-3.5-6.4-5.2c-2.5-1.8-5.1-3.2-7.1-4.3c-1-0.5-1.9-0.9-2.5-1.2C83.4,5.1,83.2,5,83,5
	c-0.2-0.1-0.3-0.1-0.3-0.1s-0.3-0.1-1-0.4c-0.6-0.3-1.5-0.6-2.6-1c-2.1-0.8-5-1.6-8-2.3c-3-0.7-6-0.9-8.2-1.1
	c-1.1,0-2.1-0.1-2.7-0.1c-0.7,0-1,0-1,0s-1.5,0-3.8,0.1c-2.3,0.2-5.3,0.5-8.2,1.1c-3,0.6-5.9,1.5-8,2.3c-1.1,0.4-1.9,0.7-2.6,1
	c-0.6,0.3-1,0.4-1,0.4S35.4,5,34.8,5.3c-0.6,0.3-1.5,0.6-2.5,1.2c-2,1-4.6,2.6-7.1,4.3c-2.5,1.7-4.8,3.7-6.5,5.2
	c-0.8,0.8-1.5,1.5-2,1.9c-0.5,0.5-0.7,0.8-0.7,0.8s-0.3,0.3-0.7,0.8c-0.5,0.5-1.1,1.2-1.8,2.1c-0.7,0.9-1.5,1.9-2.4,3.1
	c-0.8,1.2-1.7,2.4-2.4,3.7c-1.6,2.6-2.9,5.3-3.8,7.4c-0.4,1-0.8,1.9-1,2.5c-0.2,0.6-0.3,1-0.3,1s-0.1,0.3-0.3,0.8
	c-0.2,0.5-0.4,1.2-0.7,2.1c-0.3,0.9-0.6,1.9-0.8,3c-0.1,0.6-0.3,1.1-0.4,1.7c-0.1,0.6-0.2,1.2-0.3,1.8c-0.3,1.2-0.4,2.4-0.6,3.5
	c-0.1,1.1-0.2,2.2-0.3,3.1c0,0.9-0.1,1.7-0.1,2.2c0,0.5,0,0.8,0,0.8s0,0.5,0,1.2c0,0.4,0,0.9,0,1.4c0,0.5,0.1,1.2,0.1,1.8
	c0.2,2.7,0.6,6.3,1.4,9.8c0.8,3.5,2,7,3,9.4c1,2.5,1.9,4.1,1.9,4.1l6-3c0,0-0.7-1.4-1.7-3.6c-0.9-2.2-2-5.3-2.7-8.4
	c-0.7-3.1-1.1-6.3-1.2-8.7c0-0.6-0.1-1.1-0.1-1.6c0-0.5,0-0.9,0-1.3C6.7,58.7,6.7,58.3,6.7,58.3z"/>
</svg>
